<svg xmlns="http://www.w3.org/2000/svg" viewBox="0 0 1024 1024" class="resume-icon__svg" fill="currentColor"><path d="M661.333333 42.666667l-341.333333 0C261.12 42.666667 213.333333 90.453333 213.333333 149.333333l0 725.333333C213.333333 933.546667 261.12 981.333333 320 981.333333l341.333333 0c58.88 0 106.666667-47.786667 106.666667-106.666667l0-725.333333C768 90.453333 720.213333 42.666667 661.333333 42.666667zM490.666667 938.666667c-35.413333 0-64-28.586667-64-64s28.586667-64 64-64 64 28.586667 64 64S526.08 938.666667 490.666667 938.666667zM682.666667 768 298.666667 768 298.666667 170.666667l384 0L682.666667 768z"/></svg>
